{
  "accessors": [
    {
      "bufferView": 2,
      "componentType": 5126,
      "count": 18077,
      "max": [
        3.283078908920288,
        1.9783190488815308,
        15.288822174072266
      ],
      "min": [
        -3.4871180057525635,
        -1.205049991607666,
        0.038214001804590225
      ],
      "type": "VEC3"
    },
    {
      "bufferView": 2,
      "byteOffset": 216924,
      "componentType": 5126,
      "count": 18077,
      "max": [
        0.9999879598617554,
        0.9999986886978149,
        0.9999884366989136
      ],
      "min": [
        -0.9999911785125732,
        -0.9999645948410034,
        -0.9999885559082031
      ],
      "type": "VEC3"
    },
    {
      "bufferView": 3,
      "componentType": 5126,
      "count": 18077,
      "max": [
        0.9999971389770508,
        0.9999999403953552,
        0.9999995231628418,
        1.0
      ],
      "min": [
        -0.9999961256980896,
        -0.9999986886978149,
        -0.9999884963035583,
        -1.0
      ],
      "type": "VEC4"
    },
    {
      "bufferView": 1,
      "componentType": 5126,
      "count": 18077,
      "max": [
        0.9947630167007446,
        0.9969480037689209
      ],
      "min": [
        0.0030519999563694,
        0.0030519999563694
      ],
      "type": "VEC2"
    },
    {
      "bufferView": 0,
      "componentType": 5125,
      "count": 51915,
      "type": "SCALAR"
    }
  ],
  "asset": {
    "extras": {
      "author": "Repka788rus (https://sketchfab.com/swan.vd)",
      "license": "CC-BY-4.0 (http://creativecommons.org/licenses/by/4.0/)",
      "source": "https://sketchfab.com/3d-models/robot-rk11-23215f643bf74275bc0442108e58b4bf",
      "title": "Robot_RK11"
    },
    "generator": "Sketchfab-16.9.0",
    "version": "2.0"
  },
  "bufferViews": [
    {
      "buffer": 0,
      "byteLength": 207660,
      "name": "floatBufferViews",
      "target": 34963
    },
    {
      "buffer": 0,
      "byteLength": 144616,
      "byteOffset": 207660,
      "byteStride": 8,
      "name": "floatBufferViews",
      "target": 34962
    },
    {
      "buffer": 0,
      "byteLength": 433848,
      "byteOffset": 352276,
      "byteStride": 12,
      "name": "floatBufferViews",
      "target": 34962
    },
    {
      "buffer": 0,
      "byteLength": 289232,
      "byteOffset": 786124,
      "byteStride": 16,
      "name": "floatBufferViews",
      "target": 34962
    }
  ],
  "buffers": [
    {
      "byteLength": 1075356,
      "uri": "scene.bin"
    }
  ],
  "images": [
    {
      "uri": "textures/lambert1.001_baseColor.png"
    },
    {
      "uri": "textures/lambert1.001_metallicRoughness.png"
    },
    {
      "uri": "textures/lambert1.001_normal.png"
    }
  ],
  "materials": [
    {
      "doubleSided": true,
      "name": "lambert1.001",
      "normalTexture": {
        "index": 2
      },
      "occlusionTexture": {
        "index": 1
      },
      "pbrMetallicRoughness": {
        "baseColorTexture": {
          "index": 0
        },
        "metallicRoughnessTexture": {
          "index": 1
        }
      }
    }
  ],
  "meshes": [
    {
      "name": "Object_0",
      "primitives": [
        {
          "attributes": {
            "NORMAL": 1,
            "POSITION": 0,
            "TANGENT": 2,
            "TEXCOORD_0": 3
          },
          "indices": 4,
          "material": 0,
          "mode": 4
        }
      ]
    }
  ],
  "nodes": [
    {
      "children": [
        1
      ],
      "matrix": [
        1.0,
        0.0,
        0.0,
        0.0,
        0.0,
        2.220446049250313e-16,
        -1.0,
        0.0,
        0.0,
        1.0,
        2.220446049250313e-16,
        0.0,
        0.0,
        0.0,
        0.0,
        1.0
      ],
      "name": "Sketchfab_model"
    },
    {
      "children": [
        2
      ],
      "name": "Robot_RK11.obj.cleaner.materialmerger.gles"
    },
    {
      "mesh": 0,
      "name": "Object_2"
    }
  ],
  "samplers": [
    {
      "magFilter": 9729,
      "minFilter": 9987,
      "wrapS": 10497,
      "wrapT": 10497
    }
  ],
  "scene": 0,
  "scenes": [
    {
      "name": "Sketchfab_Scene",
      "nodes": [
        0
      ]
    }
  ],
  "textures": [
    {
      "sampler": 0,
      "source": 0
    },
    {
      "sampler": 0,
      "source": 1
    },
    {
      "sampler": 0,
      "source": 2
    }
  ]
}
