<?xml version="1.0" standalone="no"?>
<!DOCTYPE svg PUBLIC "-//W3C//DTD SVG 20010904//EN"
 "http://www.w3.org/TR/2001/REC-SVG-20010904/DTD/svg10.dtd">
<svg version="1.0" xmlns="http://www.w3.org/2000/svg"
 width="260.000000pt" height="240.000000pt" viewBox="0 0 260.000000 240.000000"
 preserveAspectRatio="xMidYMid meet">

<g transform="translate(0.000000,240.000000) scale(0.100000,-0.100000)"
fill="#000000" stroke="none">
<path d="M1880 2387 c0 -8 23 -52 51 -98 79 -128 138 -258 145 -314 l5 -50
-32 54 c-113 188 -398 368 -530 333 -75 -19 -42 -64 124 -167 90 -57 117 -82
76 -72 -61 15 -201 19 -298 8 -130 -16 -250 -50 -369 -106 -224 -106 -366
-238 -507 -470 -9 -14 -36 3 -192 120 -99 74 -183 135 -186 135 -2 0 -17 -28
-32 -62 -27 -59 -27 -62 -11 -90 17 -28 17 -28 -9 -38 -14 -6 -30 -10 -35 -10
-12 0 -52 -78 -46 -89 3 -4 89 -29 191 -56 102 -27 185 -52 185 -56 0 -3 -73
-16 -162 -28 -90 -12 -181 -24 -204 -27 l-40 -6 45 -129 c25 -71 51 -129 58
-129 6 0 85 31 174 70 89 38 165 68 167 65 3 -3 -13 -31 -34 -62 -21 -32 -43
-64 -47 -71 -5 -7 16 1 46 17 29 17 58 31 63 31 5 0 19 -33 31 -73 20 -65 64
-142 133 -235 29 -39 31 -37 -80 -83 -41 -17 -76 -32 -78 -34 -8 -7 32 -85 43
-85 7 0 42 13 78 30 37 16 69 30 72 30 3 0 5 -15 5 -32 1 -46 31 -107 74 -147
26 -26 36 -43 36 -66 0 -52 56 -151 108 -190 25 -20 50 -34 56 -32 6 2 14 28
19 58 4 31 26 93 51 144 64 130 59 126 101 85 19 -18 35 -43 35 -54 0 -38 20
-93 48 -134 29 -43 97 -102 117 -102 7 0 14 21 18 53 6 60 31 121 88 223 l41
71 105 6 c263 17 488 94 650 226 66 53 54 50 313 90 l45 7 -65 24 c-146 53
-152 57 -139 82 7 13 28 41 49 63 134 148 145 415 24 592 -36 52 -106 105
-155 117 -15 3 -47 30 -72 59 -45 53 -46 55 -41 108 17 163 -96 392 -235 481
-49 31 -71 35 -71 15z m-69 -414 c88 -29 142 -58 137 -75 -2 -6 -34 -22 -70
-34 -317 -107 -487 -338 -449 -609 22 -157 105 -280 227 -337 58 -27 73 -30
142 -27 61 3 89 10 131 32 44 22 52 24 46 10 -27 -69 -65 -176 -65 -185 0 -11
66 -7 165 8 l40 6 -40 -26 c-61 -39 -180 -82 -291 -106 -155 -33 -545 -40
-593 -11 -9 6 -5 20 18 58 47 77 97 191 115 264 18 72 21 186 6 209 -7 11 -10
-5 -10 -51 0 -125 -47 -220 -209 -423 -116 -145 -164 -222 -187 -295 -11 -34
-22 -61 -26 -61 -4 0 -10 21 -14 46 -20 138 40 268 211 452 31 34 52 62 47 62
-23 0 -193 -123 -232 -168 -44 -49 -90 -130 -90 -157 0 -8 -4 -15 -10 -15 -15
0 -30 35 -30 70 0 63 51 128 188 239 29 24 51 46 48 48 -11 11 -195 -87 -240
-128 -49 -43 -49 -44 -42 -14 12 46 41 79 119 136 110 81 177 139 208 182 42
58 35 71 -13 26 -23 -21 -85 -61 -137 -90 -134 -73 -189 -108 -206 -132 -18
-25 -31 -16 -74 51 -79 125 -98 303 -48 455 65 199 231 383 451 498 l70 37 51
-54 c55 -58 90 -69 132 -39 24 17 49 111 38 144 -5 17 0 21 30 27 42 8 48 3
63 -51 17 -61 54 -95 102 -95 35 0 43 5 64 38 14 20 30 57 36 80 l11 44 52 -7
c29 -4 86 -18 128 -32z m91 -330 c34 -19 63 -46 92 -86 l41 -58 20 28 c44 61
82 97 120 114 54 25 72 24 134 -7 176 -88 206 -438 49 -580 -46 -41 -76 -54
-127 -54 -51 0 -120 46 -157 104 -16 25 -31 46 -34 46 -3 0 -14 -14 -24 -31
-54 -91 -123 -138 -217 -146 -221 -21 -371 294 -252 531 78 157 219 213 355
139z m-568 -1170 c-15 -26 -35 -72 -44 -102 -10 -30 -20 -49 -24 -43 -12 20
-19 100 -12 146 l7 46 51 0 50 0 -28 -47z"/>
<path d="M1890 1405 c-32 -34 -39 -112 -15 -165 28 -62 71 -65 99 -6 22 47 21
76 -3 76 -29 0 -33 15 -11 35 25 23 25 40 0 65 -26 26 -42 25 -70 -5z"/>
<path d="M2321 1394 c-35 -45 -25 -166 15 -181 39 -15 75 84 38 105 -11 6 -13
11 -5 16 24 15 7 86 -20 86 -4 0 -17 -12 -28 -26z"/>
</g>
</svg>
